<svg xmlns="http://www.w3.org/2000/svg" width="248" height="64" viewBox="0 0 248 64" fill="none">
  <path d="M232.587 15.4945C233.87 15.3883 235.115 15.4848 236.35 15.8033C237.209 16.0252 237.691 16.8358 237.489 17.6657C237.296 18.4763 236.504 18.9877 235.646 18.7851C234.526 18.5245 233.417 18.428 232.288 18.7175C229.972 19.3158 228.4 20.7343 227.58 22.9827C227.416 23.417 227.29 23.8705 226.875 24.1504C226.335 24.5267 225.64 24.5364 225.1 24.1697C224.579 23.8126 224.319 23.1371 224.502 22.5003C224.859 21.2265 225.447 20.0589 226.296 19.036C227.483 17.5982 228.95 16.556 230.725 15.9673C231.333 15.7647 231.97 15.6392 232.587 15.4752V15.4945Z" fill="black"/>
  <path d="M245.892 17.035C243.104 12.3837 238.965 9.8941 233.533 9.63355C230.677 9.49846 228.004 10.2029 225.544 11.6311C222.341 13.5031 220.16 16.234 218.945 19.7273C217.999 22.4582 217.941 25.2373 218.646 28.0261C219.128 29.9368 220.006 31.6737 221.202 33.2467C221.579 33.7388 221.559 33.8932 221.183 34.3853C219.099 37.068 217.015 39.7506 214.95 42.4429C214.641 42.8482 214.362 43.2825 214.159 43.7553C213.956 44.2281 213.879 44.7492 213.744 45.251L213.87 46.245C214.12 46.8239 214.468 47.3257 214.979 47.731C215.51 48.146 216.098 48.3679 216.754 48.4741L217.748 48.3486C217.748 48.3486 217.767 48.3004 217.787 48.2907C218.848 47.9626 219.591 47.2292 220.257 46.38C221.386 44.9133 222.514 43.4562 223.653 41.999C224.599 40.7832 225.534 39.5673 226.48 38.3514C226.769 37.9751 226.972 37.9268 227.406 38.0909C227.532 38.1391 227.647 38.1874 227.773 38.2356C230.841 39.4515 233.967 39.6252 237.151 38.747C239.438 38.1198 241.445 36.9908 243.152 35.3696C246.143 32.5422 247.745 29.0586 247.89 24.9285C247.986 22.1108 247.359 19.4474 245.912 17.035H245.892ZM234.613 36.8074C227.821 37.6663 221.608 32.8607 220.739 26.0672C219.871 19.2737 224.685 13.0592 231.478 12.1908C238.27 11.3319 244.484 16.1375 245.352 22.931C246.211 29.7245 241.406 35.939 234.613 36.8074Z" fill="black"/>
  <path d="M243.76 54.7748C243.76 54.7748 243.722 54.7748 243.712 54.7748C242.931 55.0064 241.85 54.9967 240.692 54.7651C239.862 54.6011 238.994 54.3116 238.155 53.9159C231.613 50.6447 222.766 45.0671 217.469 38.592C217.256 38.3315 216.948 38.1385 216.629 38.071C216.6 38.071 216.571 38.0709 216.542 38.0516H216.504V37.8876C216.504 37.5595 215.886 37.2218 215.655 36.9226C212.673 33.0916 208.197 27.8132 206.778 24.8314C208.534 12.4024 208.1 4.30625 207.82 0.851616C207.811 0.68757 207.656 0.542824 207.492 0.513874C207.434 0.504225 207.376 0.513869 207.319 0.523519L189.874 4.84664C189.749 4.89489 190.338 8.51357 190.482 8.54252C192.364 8.95746 195.808 10.6172 195.972 13.2806C196.561 21.2706 195.663 24.8218 194.235 30.38C194.158 30.6888 194.149 31.0169 194.226 31.3643L194.419 32.2425L194.149 32.2618C193.869 32.2811 193.647 32.4451 193.57 32.6864C193.483 32.9469 193.464 33.2267 193.512 33.5162L193.734 34.9155L193.058 35.1664C192.759 35.2822 192.537 35.4944 192.412 35.7743C190.839 39.4605 188.707 42.3941 186.005 45.4241C185.928 45.4241 185.88 45.4241 185.89 45.4338C185.909 45.4338 185.948 45.4338 186.005 45.4338C185.629 45.8584 185.234 46.283 184.838 46.7172C182.773 48.2612 179.232 50.6061 177.611 50.0946C176.492 49.7376 175.846 46.3987 175.701 43.8705L175.74 39.8562C175.923 36.6235 176.241 33.825 176.454 32.0977C172.749 32.1363 168.716 33.6031 168.542 35.3497V35.1664L168.523 36.0348L165.956 33.9119C165.869 33.8347 165.754 33.7864 165.657 33.7768C165.512 33.7575 165.377 33.7961 165.271 33.8926L163.37 35.5813L163.399 32.1363C159.858 32.2714 156.433 34.0084 156.125 35.6971V36.305L153.452 34.1049C153.355 34.0277 153.249 33.9794 153.143 33.9698C152.998 33.9505 152.863 33.9891 152.757 34.0856L150.885 35.755V32.8118C147.267 32.9276 143.736 34.7514 143.562 36.4787V36.4208L143.591 36.8068C143.62 37.106 143.707 37.4051 143.833 37.6946L144.122 38.3605L143.9 38.6306C143.726 38.8429 143.63 39.1228 143.63 39.4123L143.533 49.0621C142.8 49.1296 142.115 49.1779 141.507 49.2165C143.456 43.0117 142.472 34.7611 141.449 27.765C141.266 26.5008 141.063 25.3139 140.851 24.1945C140.813 23.9919 140.639 23.8375 140.446 23.8182C140.407 23.8182 140.369 23.8182 140.33 23.8182L139.8 23.8954L140.137 21.6373C140.176 21.3478 140.166 21.0487 140.089 20.7495C139.732 19.3214 139.336 18.0283 138.922 16.851C141.179 14.4289 142.945 11.7366 144.247 9.03466C145.646 10.2119 147.422 12.113 148.416 13.7438L143.437 13.1648C143.215 13.1358 143.07 13.3385 143.148 13.5508L143.717 15.0561L143.63 30.1677L143.514 30.5151C143.427 30.7853 143.408 31.0845 143.476 31.3836L143.736 32.5802C144.817 31.4512 151.204 31.3643 151.204 31.3643L176.55 31.181L178.248 30.9011C178.509 30.8625 178.692 30.6406 178.692 30.38L178.779 19.0994C178.866 19.0994 178.933 19.0608 178.981 19.0029L180.622 17.1309C180.776 16.9572 180.747 16.6677 180.544 16.494L177.496 13.7534L179.811 11.9489C179.995 11.8042 180.004 11.5243 179.811 11.3603C178.943 10.6558 176.695 9.33381 173.27 8.31093C175.334 8.04073 178.692 5.16508 179.744 4.22905C179.898 4.0843 179.859 3.81411 179.647 3.69831L173.183 0.0410282C173.183 0.0410282 173.096 0.00243538 173.057 0.00243538C172.903 -0.0168643 172.758 0.0796286 172.739 0.253325C172.43 2.56928 169.671 5.89847 166.989 7.60649C166.825 7.71263 166.844 7.96353 167.027 8.08898C168.33 9.01536 170.259 10.955 171.494 12.7305L169.516 14.5543L164.924 14.6026L168.031 12.1709C168.214 12.0261 168.224 11.7463 168.031 11.5822C167.162 10.8778 164.914 9.55575 161.489 8.53287C163.554 8.27232 166.911 5.38703 167.963 4.451C168.117 4.3159 168.069 4.0457 167.857 3.94921L161.711 0.880565C161.653 0.851615 161.605 0.83232 161.547 0.83232C161.354 0.81302 161.18 0.899867 161.084 1.06391C160.273 2.53069 157.765 6.13007 155.198 7.82843C155.034 7.93458 155.054 8.18547 155.227 8.32057C156.954 9.5654 159.839 12.6051 160.659 14.6412L153.269 14.7184L156.337 12.3156C156.52 12.1708 156.53 11.891 156.337 11.727C155.468 11.0225 153.22 9.7005 149.795 8.67762C151.86 8.40742 155.218 5.53177 156.269 4.59574C156.424 4.46064 156.366 4.19045 156.163 4.09395L150.017 1.02531C149.959 0.996364 149.901 0.977061 149.843 0.977061C149.66 0.957762 149.486 1.03496 149.39 1.19901C148.782 2.29909 147.2 4.62469 145.357 6.42921C145.473 6.13006 145.579 5.83092 145.675 5.53177L145.376 5.36773C145.328 5.30983 145.27 5.25193 145.203 5.21333L137.928 1.33411C137.928 1.33411 137.889 1.32446 137.87 1.31481L137.754 1.25691C137.754 1.25691 137.735 1.30516 137.735 1.33411C137.629 1.36306 137.542 1.44026 137.551 1.57535C137.551 1.7394 137.542 1.9131 137.523 2.09644C136.857 4.38345 135.96 6.51605 134.918 8.48462C134.85 8.60041 134.782 8.71621 134.705 8.84166C133.046 6.6801 131.203 4.98174 129.254 3.20617C129.138 3.10003 128.993 3.03247 128.858 3.01317C128.733 2.99387 128.617 3.01318 128.511 3.07108L123.407 5.87917C123.262 5.69582 123.079 5.50283 122.857 5.29053C122.182 4.63434 121.362 3.95886 120.435 3.27372C119.509 2.59823 118.583 1.99994 117.686 1.4885C116.663 0.909511 115.987 0.658623 115.505 0.658623C114.897 0.658623 114.357 0.957768 113.894 1.55606C113.556 1.99995 113.209 2.49208 112.871 3.02282C112.562 3.51497 112.215 3.9685 111.858 4.38344C111.52 4.76944 111.231 4.81769 111.048 4.81769C111.048 4.81769 99.6432 4.66329 95.8514 4.81769C94.7997 4.85629 93.9314 5.64758 93.9314 5.64758C93.9314 5.64758 92.8411 4.82734 92.3973 4.81769C89.8019 4.77909 81.8324 4.81769 81.8324 4.81769C81.2921 4.81769 80.6456 4.67294 79.9124 4.3931C79.0922 4.0843 78.2432 3.75621 77.3652 3.39917C76.4776 3.04212 75.6382 2.71403 74.8373 2.40524C73.9593 2.05784 73.2261 1.8938 72.5989 1.8938C72.0297 1.8938 71.6051 2.14469 71.4218 2.56928C71.306 2.84913 71.2482 3.12897 71.2482 3.40882V12.9718C70.4956 12.1515 69.6465 11.3313 68.9229 11.3313H67.3213C67.4467 11.2252 67.5721 11.119 67.7072 10.9936C68.0642 10.6655 68.3922 10.2505 68.6913 9.73909C69.0194 9.18905 69.1834 8.50392 69.1834 7.69333C69.1834 6.7766 68.7589 5.93707 67.9098 5.19403C67.1573 4.53785 66.2021 3.9299 65.0732 3.38951C63.9637 2.85878 62.6997 2.38594 61.3007 1.98064C59.9307 1.585 58.5606 1.2569 57.2581 1.00601C55.9652 0.755114 54.7399 0.552473 53.64 0.407726C52.5111 0.253329 51.662 0.185777 51.0446 0.185777C50.3016 0.185777 49.8192 0.658618 49.8192 1.392C49.8192 4.71154 49.8964 8.06003 50.0315 11.3603C48.1115 11.3699 46.1721 11.3892 44.3486 11.3989C44.0013 11.3989 43.2776 11.92 42.9496 11.92C42.6505 11.92 42.7277 11.4085 42.4382 11.4182C38.8877 11.4471 36.08 11.4857 35.2792 11.5243C34.9222 11.5436 34.1696 11.6015 33.7258 11.8814C33.4653 11.5822 33.1758 11.2734 32.8478 10.955C32.1145 10.2505 31.3427 9.604 30.5515 9.03466C29.6349 8.37847 29.0174 8.07932 28.535 8.07932C28.1394 8.07932 27.8114 8.38812 27.4061 8.89956C27.3482 8.97676 27.2904 9.05396 27.2325 9.13116C26.4992 9.15046 25.5247 9.16976 24.4055 9.18906C24.1354 9.18906 23.8652 9.61364 23.5854 9.62329C23.2188 9.62329 22.8425 9.21801 22.4662 9.22766C18.6069 9.30485 14.1107 9.34345 11.5539 9.3338C11.0619 9.3338 9.53742 9.4689 9.6725 10.3663C9.80758 11.2638 10.2225 13.7824 10.2225 13.7824L10.4154 13.8692C10.454 14.1201 10.4154 14.2359 10.5216 14.3421C10.7242 14.5544 11.0136 14.6701 11.3899 14.6701H33.6969C33.7354 14.9789 33.774 15.2491 33.7933 15.4228L33.7547 15.4518L33.803 15.5C33.803 15.5772 33.8223 15.6158 33.8223 15.6158L34.4687 16.1659H34.488L34.6713 16.3492H49.4236L49.5394 16.1948H50.2437C50.3113 18.4818 50.3499 20.7688 50.3499 23.0558C50.3016 23.0558 50.263 23.0365 50.2437 23.0269C50.1762 22.9786 50.0411 22.8628 49.771 22.5927C49.4912 22.3225 49.2017 22.0426 48.9026 21.7724C48.5842 21.4829 48.2755 21.232 47.986 21.039C47.4071 20.6434 46.9826 20.7109 46.7221 20.8364C46.5291 20.9329 46.3651 21.1066 45.8537 21.8882C45.7283 22.0812 45.5933 22.2839 45.4582 22.4961V22.4672C45.4582 22.4672 42.6602 22.5058 39.8043 22.5637C39.5052 22.5637 39.4473 23.2585 39.1482 23.2585C38.9166 23.2585 38.4535 22.5927 38.2316 22.5927C36.794 22.6216 35.4818 22.6602 34.6617 22.6988C34.1214 22.7278 32.6452 22.8339 32.7803 23.7313C32.9057 24.6288 33.1855 26.8 33.1855 26.8C33.2144 27.1281 33.417 27.7939 34.6231 27.7939C35.202 27.7939 35.8581 27.7649 36.5624 27.6974C37.2185 27.6395 37.8167 27.6299 38.3473 27.6685C38.55 27.6877 38.6368 27.7263 38.6464 27.7263C38.6464 27.7263 38.6464 27.7457 38.6464 27.765V39.0745L38.8973 39.7983L38.6464 40.6281V45.675L38.6272 45.7136C38.4631 45.7619 38.2605 45.8101 38.0193 45.868C37.643 45.9452 37.2185 46.0224 36.7457 46.0803C36.2729 46.1382 35.8291 46.1961 35.4143 46.2347C35.0187 46.2733 34.7003 46.2926 34.4687 46.2926C34.1986 46.2926 33.8898 46.2347 33.5425 46.1286C33.2627 46.0417 33.089 48.5217 33.5232 49.3805C33.9091 50.1429 34.2468 50.9824 34.5266 51.8798C34.8161 52.8159 35.1248 53.6844 35.4143 54.466C35.8002 55.4792 36.3501 56.0003 37.0352 56.0003C37.3632 56.0003 37.672 55.8556 37.9614 55.5757C38.4245 55.1125 38.878 54.659 39.3218 54.1958C39.7271 53.7712 40.1998 53.3756 40.7305 53.0089C41.5795 52.372 42.4961 51.7833 43.4513 51.2816C44.4354 50.7605 45.4292 50.2297 46.3844 49.6893C47.3589 49.1489 48.3044 48.5603 49.221 47.9524C50.1569 47.3348 51.0445 46.5821 51.855 45.7329C52.0673 45.5206 52.3471 45.2022 52.3471 44.8162C52.3471 44.3433 52.0769 43.9766 51.6427 43.8705C51.4208 43.8222 51.2086 43.7933 50.9963 43.7933C50.3016 43.7933 49.5973 43.8512 48.893 43.9573C48.2562 44.0538 47.6097 44.1021 46.973 44.1021C46.9633 44.1021 46.9537 44.1021 46.944 44.1021C46.944 44.1021 46.944 44.0828 46.944 44.0731V28.0544C46.944 28.0544 47.0212 28.0158 47.0984 27.9965C47.822 27.8132 48.8061 27.8421 49.7227 27.9193C50.1183 27.9579 50.4078 27.9772 50.6104 27.9772C50.6586 27.9965 50.7069 28.0158 50.7551 28.0351C50.813 28.2474 50.9288 28.7685 51.1121 30.0616C51.3243 31.5766 51.6427 33.4873 52.0576 35.7261C52.4725 37.9648 53.0417 40.4062 53.7364 42.9924C54.4311 45.5978 55.3477 48.0392 56.4476 50.2587C56.5923 50.5385 57.1519 49.4384 57.2967 49.7086C57.4124 49.9209 57.1133 51.5131 57.2388 51.7254C58.2036 53.3466 59.4675 54.6204 60.5964 55.9328C63.761 59.6383 67.2151 58.3259 69.3088 56.7819C69.3088 56.7819 69.3088 56.7819 69.3185 56.7819C69.3378 56.7723 69.3571 56.753 69.3764 56.7337C69.4439 56.6854 69.5018 56.6372 69.5693 56.5889C73.3322 53.8002 80.0957 44.6521 80.4334 35.755L80.7711 36.0734C80.8289 36.2375 80.8965 36.4015 80.964 36.5849C81.1859 37.1542 81.4464 37.5499 81.7262 37.8201C82.5657 38.6403 84.312 38.3315 85.6242 38.3122C86.9556 38.2832 88.8274 38.2446 90.9115 38.206V57.2258C90.9115 57.9592 91.4228 58.4321 92.2043 58.4321C92.6096 58.4321 93.1788 58.4224 93.9217 58.4031C94.684 58.3838 95.4655 58.3066 96.2373 58.1715C97.0189 58.0461 97.7521 57.8531 98.4179 57.6118C99.1897 57.3223 99.7107 56.917 99.9423 56.4249C100.077 56.174 100.212 55.6722 100.309 53.7615C100.376 52.4106 100.434 50.6447 100.473 48.5217C100.512 46.4277 100.55 44.0249 100.569 41.3905C100.569 40.2808 100.589 39.1517 100.589 38.0131C103.02 37.9648 105.123 37.9262 106.397 37.8973C107.314 37.878 108.018 37.8201 108.578 37.8201C109.822 37.8201 110.575 37.1639 111.048 36.691C111.144 36.5945 111.298 36.4305 111.462 36.2568C111.511 36.4112 111.569 36.5559 111.646 36.691C111.733 36.8358 111.771 36.9998 111.771 37.1832C111.771 37.5113 111.761 38.2543 111.742 39.4123C111.723 40.5896 111.675 41.8151 111.607 43.0695C111.54 44.353 111.414 45.5206 111.405 46.5821C111.395 48.3191 111.115 49.313 110.7 49.8341C108.578 49.3033 107.15 48.8015 106.86 48.7051C106.831 48.6954 106.812 48.6857 106.802 48.6857C106.262 48.7822 105.924 49.1393 105.924 49.6411C105.924 49.9692 106.05 50.249 106.272 50.4613L106.561 50.7315C107.362 51.5228 107.96 52.2465 108.327 52.8834C108.693 53.5107 108.983 54.3598 109.185 55.402C109.272 55.8749 109.33 56.396 109.378 56.9363C109.446 57.8048 110.054 58.3259 110.999 58.3259C111.154 58.3259 111.308 58.3163 111.462 58.3066C111.877 58.4321 112.36 58.4707 112.543 58.49C131.367 60.7094 138.208 54.5818 139.848 52.6711C139.906 52.6132 139.944 52.5553 139.993 52.4974C140.185 52.2658 140.263 52.1211 140.263 52.1211L141.633 56.4249C141.7 56.6372 141.893 56.8109 142.096 56.8398C142.134 56.8398 142.173 56.8398 142.212 56.8398C143.736 56.6275 148.252 55.4406 152.043 53.5492C152.67 54.08 153.298 54.9099 153.828 56.8205C153.886 57.0328 154.069 57.1969 154.262 57.2258C154.301 57.2258 154.34 57.2258 154.378 57.2258C157.562 56.7916 166.111 54.63 170.346 52.1018C171.137 53.5589 171.996 55.6047 173.405 56.9363C174.418 58.3066 176.232 60.6226 176.917 60.7384C182.31 60.584 199.822 45.8873 204.231 35.4848C205.003 37.4534 207.666 40.6571 209.007 42.9055C209.19 43.2239 209.962 43.4942 210.29 43.6871C210.522 43.8222 210.695 43.9091 210.695 43.9091L210.647 43.9863C210.483 44.2179 210.503 44.546 210.686 44.8451C216.292 53.6361 226.451 60.198 232.771 63.8167C232.858 63.8649 232.945 63.9035 233.041 63.9228C233.263 63.9614 233.475 63.9132 233.61 63.7684L243.857 54.8713C243.915 54.8134 243.847 54.7169 243.77 54.6976L243.76 54.7748ZM170.79 19.2249L170.732 26.5587L167.847 26.5877C168.59 25.9894 169.545 25.256 170.047 24.87C170.211 24.7446 170.173 24.4744 169.97 24.3586C168.233 23.3453 165.416 22.1777 163.911 21.6277C164.306 21.1741 164.644 20.7399 164.905 20.3249C165.02 20.1416 164.905 19.8714 164.683 19.7846L163.38 19.2924L170.79 19.2152V19.2249ZM160.727 24.6577C161.692 25.4104 162.377 26.192 162.743 26.6456L157.852 26.6938C158.662 26.2403 159.685 25.5069 160.727 24.6577ZM151.667 19.4275L157.581 19.36C156.723 20.6627 154.832 23.2585 152.275 25.7288C152.101 25.8929 152.101 26.1824 152.275 26.385L152.593 26.7324H151.599L151.667 19.4179V19.4275ZM58.9658 8.13723C58.9851 6.94065 59.072 5.85987 59.207 4.91419C59.3132 4.22905 59.4579 4.00711 59.5061 3.95886C59.8438 3.97816 60.1622 4.2001 60.4999 4.65365C60.9244 5.23263 61.2911 5.91777 61.5902 6.68976C61.8893 7.48104 62.1208 8.30127 62.2849 9.11185C62.4489 9.92244 62.5261 10.5304 62.5261 10.8971C62.5261 11.0032 62.4971 11.1673 62.4199 11.3989C61.7156 11.3989 60.5289 11.3989 59.0237 11.4182C58.9755 10.3567 58.9465 9.25661 58.9658 8.13723ZM60.8473 35.1278C60.8087 34.9348 60.2973 34.819 60.2587 34.626C60.1815 34.2207 60.5964 33.7189 60.5289 33.3039C60.1719 31.0941 59.8824 28.9326 59.6509 26.8579C59.4193 24.7735 59.2553 22.8821 59.1491 21.2224C59.043 19.5626 58.9948 18.3757 58.9948 17.6809C58.9948 17.5651 59.0044 17.3335 59.0237 16.9958C59.043 16.6966 59.0623 16.5808 59.072 16.5422V16.5229C59.072 16.5229 59.0913 16.5229 59.1009 16.5133C59.1781 16.465 59.2167 16.465 59.2167 16.465H65.3627C65.3627 16.465 69.1352 16.5133 71.2482 16.5326V22.8339C71.2482 23.2102 72.1358 24.098 72.1358 24.098C72.1358 24.098 71.2482 23.7989 71.2482 24.127C71.2482 24.1752 71.2482 24.2428 71.2482 24.291C71.2482 24.7735 71.2868 25.42 71.3253 26.1824C71.4315 30.9687 71.1227 43.4169 65.4399 47.1418C64.7934 47.1418 62.3427 41.1106 61.8314 39.3254C61.4647 38.0227 61.1367 36.6138 60.8473 35.1181V35.1278ZM81.1377 9.98999H90.9018V18.5783L81.1377 18.6941V9.98034V9.98999ZM80.4816 35.4945C80.4816 35.4945 80.4816 35.4751 80.4816 35.4558C80.4816 35.4655 80.4816 35.4752 80.4913 35.4848H80.472L80.4816 35.4945ZM90.9018 29.637L91.2106 30.4379L90.9018 31.2196V33.5355L80.7325 33.661C80.9254 32.0591 81.0316 30.4186 81.0702 28.7685C81.1087 26.6649 81.1377 24.4358 81.1377 22.1391C81.3114 22.4962 81.514 22.7663 81.7262 22.969C82.5657 23.7892 84.312 23.4804 85.6242 23.4611C86.9556 23.4322 88.8274 23.3936 90.9115 23.355V28.2957L91.4614 29.0291L90.9115 29.637H90.9018ZM125.173 51.0499C123.889 51.2333 122.587 51.3105 121.313 51.3105C121.352 50.9824 121.381 50.6447 121.381 50.2973V41.5256C121.381 41.5256 121.41 41.5352 121.419 41.5449L121.612 41.651L121.767 41.8151C121.767 41.8151 121.786 41.8344 121.796 41.844C121.815 41.8537 121.844 41.873 121.863 41.8826L122.027 41.9791L122.162 42.1142C122.211 42.1625 122.259 42.2204 122.307 42.2686C124.652 42.2976 129.939 40.6378 135.091 36.6138C135.13 36.6814 135.149 36.7489 135.178 36.8165H135.072C135.4 49.5928 131.203 50.2008 125.182 51.0403L125.173 51.0499ZM121.381 33.1109V24.5998C123.262 24.7735 128.038 24.8314 132.882 21.8593C135.13 29.7818 125.858 38.8236 121.41 41.4484C121.4 41.4484 121.391 41.4677 121.381 41.4773V35.3883L120.956 34.2207L121.381 33.1206V33.1109ZM130.084 15.693C126.581 19.9003 122.983 22.7277 121.381 23.8857V9.218C121.381 9.00571 121.448 8.94781 121.477 8.92851C121.641 8.80307 121.854 8.69692 122.095 8.61972C122.172 8.59077 122.23 8.56182 122.307 8.53287C125.414 10.0768 128.144 12.7498 130.084 15.6834V15.693ZM100.531 17.2756C100.531 14.9789 100.521 12.9042 100.502 11.1094C100.502 10.7137 100.492 10.3374 100.492 9.98999H111.771V20.46L108.635 17.7388L102.489 18.4432L100.54 18.4625C100.54 18.0669 100.54 17.6616 100.54 17.2756H100.531ZM111.636 34.7321C111.559 34.8672 111.501 35.012 111.453 35.1471L108.626 32.6864L102.48 33.3908L100.598 33.4101C100.598 33.4101 100.598 33.3522 100.598 33.3232C100.598 30.5634 100.589 27.7456 100.569 24.9472C100.569 24.3393 100.569 23.741 100.56 23.1427C103.001 23.0944 105.123 23.0558 106.397 23.0269C107.314 23.0076 108.018 22.9497 108.578 22.9497C109.822 22.9497 110.575 22.2935 111.048 21.8207C111.202 21.6663 111.53 21.3189 111.771 21.0583V34.2882C111.771 34.4426 111.733 34.5777 111.646 34.7225L111.636 34.7321ZM155.999 49.6025C155.652 49.6025 155.314 49.5735 154.996 49.5542L154.677 48.2515C154.629 48.0489 154.446 47.8848 154.243 47.8655C154.205 47.8655 154.166 47.8655 154.127 47.8655C153.51 47.9524 152.285 48.1164 150.779 48.3094L150.799 46.2443L154.986 46.225C155.285 46.225 155.565 46.1575 155.816 46.0224L156.028 45.9066L155.989 49.6121L155.999 49.6025ZM156.067 42.7415L153.404 40.5413C153.317 40.4641 153.211 40.4255 153.105 40.4062C152.96 40.3869 152.825 40.4255 152.719 40.522L150.847 42.1914L150.866 39.8369L155.054 39.8176C155.353 39.8176 155.632 39.75 155.883 39.6149L156.096 39.4991L156.067 42.7415ZM163.332 39.6342L167.548 39.6149C167.847 39.6149 168.127 39.5474 168.378 39.4123L168.494 39.3447L168.474 42.3651L165.889 40.2325C165.792 40.1553 165.696 40.1167 165.58 40.0974C165.435 40.0781 165.3 40.1167 165.194 40.2132L163.293 41.9019L163.313 39.6246L163.332 39.6342ZM163.245 48.8401L163.274 45.9259L167.49 45.9066C167.789 45.9066 168.069 45.8391 168.32 45.704L168.561 45.5785C168.609 46.0803 168.667 46.611 168.754 47.1804C167.731 47.7304 165.638 48.3577 163.245 48.8401Z" fill="black"/>
  <path d="M14.515 6.93181H29.1612C32.0267 6.93181 31.8917 5.65804 31.8917 5.65804C31.8917 5.37819 31.7662 5.17554 30.9751 4.34566C30.4637 3.82457 29.8848 3.25523 29.2577 2.67624C28.6209 2.0876 28.013 1.55686 27.4341 1.09367C26.5754 0.398884 26.2956 0.273438 26.0255 0.273438C25.5045 0.273438 25.1378 0.765573 24.858 1.24806L24.5589 1.74021C21.9828 1.82705 14.9878 1.96215 14.9878 1.96215C13.8782 1.98145 13.0485 2.09725 13.1064 2.99468C13.1643 3.98862 13.0002 6.93181 14.5247 6.93181H14.515Z" fill="black"/>
  <path d="M30.9751 20.1582C30.4637 19.6371 29.8848 19.0677 29.2577 18.4887C28.6209 17.9001 28.013 17.3694 27.4341 16.9062C26.5754 16.2114 26.2956 16.0859 26.0255 16.0859C25.5045 16.0859 25.1378 16.5781 24.858 17.0606L24.5589 17.5527C21.9828 17.6396 14.9878 17.7747 14.9878 17.7747C13.8782 17.794 13.0485 17.9097 13.1064 18.8072C13.1643 19.8011 13.0002 22.7443 14.5247 22.7443H29.1708C32.0364 22.7443 31.9013 21.4705 31.9013 21.4705C31.9013 21.1907 31.7759 20.988 30.9847 20.1582H30.9751Z" fill="black"/>
  <path d="M30.9751 28.8066C30.4637 28.2855 29.8848 27.7162 29.2577 27.1372C28.6209 26.5485 28.013 26.0178 27.4341 25.5546C26.5754 24.8598 26.2956 24.7344 26.0255 24.7344C25.5045 24.7344 25.1378 25.2265 24.858 25.709L24.5589 26.2012C22.4653 26.2783 17.4578 26.3749 15.6535 26.4038C15.6246 26.4038 15.5281 26.5003 15.393 26.51C15.2194 26.51 14.9878 26.4231 14.9878 26.4231C13.8782 26.4424 13.0485 26.5582 13.1064 27.4556C13.1643 28.4496 13.0002 31.3928 14.5247 31.3928H29.1708C32.0364 31.3928 31.9013 30.119 31.9013 30.119C31.9013 29.8391 31.7759 29.6365 30.9847 28.8066H30.9751Z" fill="black"/>
  <path d="M17.4583 37.9625C18.7222 37.1519 19.9668 36.3703 21.1825 35.5694C21.472 35.386 21.7035 35.3667 22.0702 35.4729C26.0163 36.6405 29.9721 37.7985 33.928 38.9565C34.4007 39.0916 34.449 39.246 34.0823 39.4776C32.8184 40.2785 31.5545 41.0891 30.2326 41.9286C30.3195 41.9576 30.3967 41.9865 30.4642 42.0154C31.7571 42.6716 33.05 43.3375 34.3525 44.0033C34.9893 44.3314 34.97 44.4665 34.256 44.6981C30.5704 45.914 26.8847 47.1299 23.2087 48.365C22.7359 48.5194 22.4272 48.5098 22.0123 48.2782C20.6036 47.5158 19.1564 46.7825 17.7381 46.0298C17.5161 45.914 17.3811 45.9236 17.1688 46.0298C15.7312 46.7825 14.284 47.5255 12.856 48.2878C12.4894 48.4808 12.1999 48.5194 11.7561 48.3747C8.01254 47.1202 4.25934 45.885 0.50614 44.6402C-0.00522164 44.4762 -0.0341631 44.3025 0.419308 44.0709C1.72183 43.405 3.02436 42.7392 4.32689 42.0637C4.42337 42.0155 4.51984 41.9576 4.63562 41.8997C3.41029 41.118 2.20425 40.346 0.988556 39.5837C0.50614 39.2846 0.351764 39.1205 1.18152 38.8793C5.08909 37.7502 8.97738 36.6019 12.8753 35.4536C13.2034 35.3571 13.4349 35.386 13.6761 35.5501C14.8339 36.2931 16.0014 37.0361 17.1688 37.7792C17.2556 37.8371 17.3521 37.8853 17.4679 37.9625H17.4583ZM6.16972 41.9382C6.27585 41.9768 6.31444 41.9962 6.36268 42.0058C9.98081 43.0673 13.5989 44.1288 17.2267 45.1902C17.3618 45.2288 17.574 45.2192 17.7091 45.1806C20.3431 44.4183 22.9771 43.6366 25.6015 42.8646C26.6242 42.5655 27.6469 42.2663 28.7082 41.9576C28.5828 41.9093 28.4959 41.8804 28.4091 41.8514C24.8585 40.8092 21.308 39.767 17.7477 38.7249C17.574 38.6766 17.3039 38.6863 17.1206 38.7249C14.5348 39.4775 11.9491 40.2399 9.36332 40.9926C8.3213 41.3014 7.26963 41.6102 6.16972 41.9286V41.9382Z" fill="black"/>
  <path d="M30.1063 47.8722C30.1063 47.8047 30.0966 47.7371 30.087 47.6406C29.9422 47.6792 29.8265 47.7178 29.7203 47.7468C27.7617 48.3933 25.8031 49.0495 23.8445 49.696C22.5227 50.1303 22.4358 50.1303 21.278 49.5223C20.2457 48.9723 19.2037 48.4319 18.123 47.8626V63.9971C21.992 62.8584 25.861 61.7101 29.73 60.5714C30.0098 60.4845 30.1063 60.3687 30.1063 60.1757C30.1063 58.8634 30.1063 49.1846 30.1063 47.8722Z" fill="black"/>
  <path d="M16.7634 47.9108C16.7055 47.9398 16.6476 47.9687 16.5897 47.9977C15.4898 48.5767 14.4092 49.1556 13.2996 49.725C12.7496 50.0048 12.1707 50.082 11.4954 49.8408C9.7876 49.2521 8.0509 48.6925 6.32385 48.1135C5.85108 47.9591 5.37832 47.8047 4.86696 47.6406C4.85731 47.7178 4.84766 47.7564 4.84766 47.7854C4.84766 49.146 4.84766 58.873 4.84766 60.2336C4.84766 60.4459 5.03097 60.5231 5.28183 60.6003C8.23422 61.4688 11.177 62.3373 14.1294 63.2154C14.9977 63.476 15.8661 63.7269 16.773 63.9874V47.8915L16.7634 47.9108Z" fill="black"/>
</svg>